<svg viewBox="0 0 240 140" xmlns="http://www.w3.org/2000/svg"><rect width="240" height="140" rx="8" fill="#f8fafc"/><rect x="70" y="8" width="100" height="8" rx="3" fill="#334155" opacity=".3"/><rect x="10" y="32" width="66" height="92" rx="10" fill="#fff"/><rect x="10" y="32" width="66" height="6" rx="4 4 0 0" fill="#7c3aed" opacity=".6"/><rect x="28" y="56" width="28" height="4" rx="2" fill="#94a3b8" opacity=".35"/><rect x="87" y="32" width="66" height="92" rx="10" fill="#fff"/><rect x="87" y="32" width="66" height="6" rx="4 4 0 0" fill="#ec4899" opacity=".6"/><rect x="105" y="56" width="28" height="4" rx="2" fill="#94a3b8" opacity=".35"/><rect x="164" y="32" width="66" height="92" rx="10" fill="#fff"/><rect x="164" y="32" width="66" height="6" rx="4 4 0 0" fill="#3b82f6" opacity=".6"/><rect x="182" y="56" width="28" height="4" rx="2" fill="#94a3b8" opacity=".35"/></svg>