<svg viewBox="0 0 240 140" xmlns="http://www.w3.org/2000/svg"><rect width="240" height="140" rx="8" fill="#fff" stroke="#e2e8f0"/><rect x="70" y="8" width="100" height="8" rx="3" fill="#334155" opacity=".3"/><rect x="10" y="36" width="66" height="88" rx="10" fill="#f8fafc"/><rect x="28" y="50" width="32" height="16" rx="6" fill="#7c3aed" opacity=".15"/><rect x="20" y="76" width="46" height="4" rx="2" fill="#94a3b8" opacity=".35"/><rect x="16" y="86" width="54" height="4" rx="2" fill="#94a3b8" opacity=".2"/><rect x="87" y="36" width="66" height="88" rx="10" fill="#f8fafc"/><rect x="105" y="50" width="32" height="16" rx="6" fill="#7c3aed" opacity=".15"/><rect x="97" y="76" width="46" height="4" rx="2" fill="#94a3b8" opacity=".35"/><rect x="93" y="86" width="54" height="4" rx="2" fill="#94a3b8" opacity=".2"/><rect x="164" y="36" width="66" height="88" rx="10" fill="#f8fafc"/><rect x="182" y="50" width="32" height="16" rx="6" fill="#7c3aed" opacity=".15"/><rect x="174" y="76" width="46" height="4" rx="2" fill="#94a3b8" opacity=".35"/><rect x="170" y="86" width="54" height="4" rx="2" fill="#94a3b8" opacity=".2"/></svg>